<svg width="60" height="60" viewBox="0 0 60 60" fill="none" xmlns="http://www.w3.org/2000/svg">
<g id="&#240;&#159;&#166;&#134; icon &#34;shield&#34;">
<path id="Vector" d="M30 0L28.575 0.675L2.325 11.7L0 12.675V15C0 27.45 5.025 38.4 11.025 46.425C14.025 50.4 17.25 53.7 20.4 56.025C23.55 58.35 26.625 60 30 60C33.45 60 36.45 58.35 39.6 56.025C42.75 53.7 45.975 50.4 48.975 46.425C54.975 38.4 60 27.45 60 15V12.675L57.675 11.7L31.425 0.675L30 0ZM30 8.175V52.5C29.7 52.5 27.525 51.975 25.05 50.175C22.575 48.375 19.725 45.45 17.1 42C12.3 35.625 8.55 26.775 7.95 17.4L30 8.25V8.175Z" fill="#4FCF78"/>
</g>
</svg>
